<?xml version="1.0" standalone="no"?>
<!DOCTYPE svg PUBLIC "-//W3C//DTD SVG 20010904//EN"
 "http://www.w3.org/TR/2001/REC-SVG-20010904/DTD/svg10.dtd">
<svg version="1.0" xmlns="http://www.w3.org/2000/svg"
 width="460.000000pt" height="460.000000pt" viewBox="0 0 460.000000 460.000000"
 preserveAspectRatio="xMidYMid meet">
<metadata>
Created by potrace 1.16, written by Peter Selinger 2001-2019
</metadata>
<g transform="translate(0.000000,460.000000) scale(0.100000,-0.100000)"
fill="#000000" stroke="none">
<path d="M750 4575 c-7 -14 -17 -25 -22 -25 -4 0 -8 -4 -8 -10 0 -5 11 -10 24
-10 22 0 23 -2 13 -25 -7 -14 -15 -25 -19 -25 -14 0 -8 -28 7 -34 20 -7 54 7
82 33 12 12 26 21 31 21 11 0 42 34 42 46 0 5 -5 2 -10 -6 -8 -13 -10 -12 -10
3 0 9 4 17 9 17 5 0 11 9 14 20 5 19 0 20 -67 20 -67 0 -74 -2 -86 -25z"/>
<path d="M956 4550 c-32 -27 -72 -63 -89 -80 -19 -19 -44 -32 -68 -36 -22 -4
-42 -11 -45 -15 -3 -5 -20 -9 -37 -9 -27 0 -37 -8 -64 -48 -18 -26 -35 -65
-38 -87 -4 -22 -13 -58 -21 -80 -11 -31 -13 -47 -5 -69 6 -15 11 -39 11 -52 0
-20 4 -25 23 -22 17 2 23 -3 25 -21 2 -13 -2 -27 -8 -31 -33 -20 5 -185 54
-240 48 -53 60 -84 48 -130 -17 -67 12 -133 54 -126 20 4 24 1 24 -20 0 -14 6
-24 14 -24 19 0 23 -7 30 -55 12 -76 18 -95 31 -95 7 0 16 -11 19 -24 7 -29
31 -40 57 -26 17 9 80 5 101 -6 3 -3 3 -18 -2 -34 -8 -28 -7 -30 18 -30 24 0
27 4 28 35 0 20 -5 36 -13 40 -23 8 -6 22 27 23 20 0 33 -6 40 -18 12 -22 3
-50 -16 -50 -7 0 -11 -6 -9 -12 3 -7 -10 -20 -28 -28 -36 -17 -37 -33 -9 -87
16 -31 15 -33 -3 -47 -11 -8 -17 -18 -13 -22 4 -4 16 -1 25 7 16 13 17 12 5
-3 -10 -13 -10 -17 0 -21 10 -4 10 -6 0 -6 -8 -1 0 -23 22 -63 38 -71 80 -192
73 -211 -2 -6 -8 2 -12 18 -4 17 -21 47 -37 68 -17 20 -38 59 -47 85 -10 26
-26 58 -36 70 -10 11 -20 30 -22 42 -3 23 -32 70 -42 70 -4 0 -5 -14 -3 -32 4
-26 2 -30 -12 -25 -19 7 -20 1 -5 -42 7 -20 18 -31 30 -31 12 0 16 -5 13 -15
-4 -8 -2 -15 3 -15 9 0 26 -45 38 -102 3 -18 12 -28 23 -28 16 -1 16 -1 -1
-11 -15 -9 -16 -12 -2 -25 17 -18 20 -34 4 -34 -5 0 -7 -5 -4 -10 4 -6 10 -8
13 -6 4 2 15 -9 24 -25 14 -24 15 -29 3 -29 -21 0 -18 -28 10 -106 38 -101 50
-127 135 -292 29 -56 50 -105 47 -108 -5 -5 -67 91 -67 105 0 5 -6 14 -14 20
-8 7 -22 39 -32 71 -10 33 -21 60 -26 60 -4 0 -8 7 -8 15 0 14 -6 28 -31 75
-5 8 -19 35 -31 60 -13 25 -26 47 -29 50 -4 3 -18 14 -33 25 -14 11 -26 25
-26 32 0 7 -4 13 -10 13 -5 0 -10 4 -10 9 0 22 -74 131 -88 131 -12 0 -13 3
-5 11 8 8 3 24 -20 58 -18 25 -35 48 -39 49 -5 2 -8 10 -8 18 0 8 -4 14 -10
14 -13 0 -1 -89 16 -116 7 -12 20 -47 29 -78 9 -31 23 -69 31 -84 18 -36 18
-72 -1 -72 -8 0 -15 7 -15 15 0 7 -6 18 -14 22 -8 4 -16 15 -18 23 -2 8 -11
22 -21 31 -10 10 -16 23 -15 30 2 9 -6 14 -19 13 -13 0 -25 7 -28 15 -10 31
-115 78 -115 51 0 -5 -18 -13 -41 -16 -37 -6 -40 -9 -35 -33 l6 -26 -21 28
c-24 32 -50 36 -44 7 3 -17 0 -19 -21 -14 -27 7 -32 -7 -9 -26 8 -7 15 -23 15
-37 0 -39 39 -105 95 -158 29 -27 69 -75 89 -105 46 -70 68 -102 81 -116 5 -7
18 -22 27 -35 43 -61 143 -195 148 -199 3 -3 21 -25 40 -50 19 -25 43 -54 52
-64 10 -11 18 -23 18 -26 0 -4 11 -19 25 -34 14 -15 25 -32 25 -39 0 -12 -28
17 -65 69 -11 15 -43 55 -71 88 -28 34 -75 93 -104 131 -30 39 -72 87 -95 108
-22 21 -40 41 -40 45 0 4 -19 25 -42 46 -24 21 -43 42 -43 47 0 17 -95 119
-111 119 -5 0 -6 7 -3 15 4 8 1 15 -4 15 -6 0 -13 8 -17 19 -8 25 -56 75 -91
94 -54 29 -155 77 -162 77 -4 0 -18 -9 -32 -19 -24 -19 -24 -20 -6 -40 11 -12
27 -21 36 -21 10 0 34 -13 55 -30 20 -16 45 -32 54 -35 10 -3 24 -23 31 -45 7
-22 19 -45 27 -51 7 -6 13 -17 13 -24 0 -8 6 -15 13 -18 19 -7 1 -20 -20 -13
-19 6 -49 31 -119 96 -50 47 -94 70 -134 70 -20 0 -30 5 -30 15 0 8 -5 15 -10
15 -6 0 -16 11 -22 25 -6 14 -16 25 -23 25 -6 0 -20 8 -31 18 -11 10 -25 17
-33 14 -7 -2 -17 2 -22 9 -6 9 -7 -2 -3 -28 5 -34 3 -44 -10 -49 -15 -6 -16
-82 -16 -876 l0 -870 33 6 c82 18 94 18 110 1 15 -14 17 -15 17 -1 0 9 5 16
10 16 6 0 10 -7 10 -15 0 -8 6 -15 13 -16 6 -1 2 -4 -10 -7 -16 -5 -20 -11
-13 -21 7 -12 16 -11 54 10 53 27 57 50 11 60 -27 6 -26 7 13 8 40 1 48 -5 43
-33 -1 -5 8 -5 21 -1 13 4 55 12 93 17 39 5 115 16 170 25 150 24 171 26 163
18 -3 -3 11 -22 31 -40 21 -19 46 -54 56 -78 12 -30 29 -50 53 -63 56 -30 82
-54 82 -75 0 -11 7 -19 18 -20 10 0 12 -3 5 -6 -7 -2 -13 -12 -13 -20 0 -12
-3 -13 -14 -4 -12 10 -13 8 -9 -9 3 -12 12 -24 19 -27 22 -8 63 -80 70 -122 5
-32 1 -52 -22 -100 -28 -60 -38 -68 -60 -53 -15 10 -34 69 -34 108 0 31 -2 32
-49 39 -27 4 -66 2 -87 -4 -22 -6 -53 -11 -69 -11 -17 0 -55 -7 -85 -15 -30
-9 -81 -22 -113 -29 -33 -8 -64 -22 -72 -32 -21 -29 -154 -27 -187 2 -27 25
-49 33 -103 41 -22 3 -55 11 -74 19 -18 8 -44 11 -57 8 l-24 -6 0 -239 0 -239
754 0 c723 0 754 1 749 18 -5 22 33 42 82 42 19 0 36 4 39 9 3 4 28 11 55 15
39 5 58 2 89 -14 33 -17 44 -19 68 -9 49 19 345 20 433 1 42 -8 90 -15 108
-16 19 0 29 -4 26 -9 -4 -6 0 -8 10 -4 9 3 42 -3 74 -13 56 -19 97 -20 1086
-20 l1027 0 0 186 0 186 -47 -5 c-135 -13 -505 -87 -693 -137 -19 -5 -57 -12
-85 -15 -27 -3 -66 -8 -85 -11 -34 -5 -33 -5 15 20 28 15 57 30 65 35 8 4 25
13 38 19 12 7 30 16 40 21 45 24 201 81 239 86 30 5 49 15 64 33 30 39 83 69
174 97 95 30 116 53 126 135 3 30 15 71 25 92 60 115 84 167 84 180 0 20 -74
125 -110 155 -32 27 -31 43 2 43 12 0 50 5 85 11 65 11 78 25 49 55 -8 8 -18
36 -21 62 -3 26 -12 61 -19 77 -8 17 -12 42 -11 56 3 26 3 26 -54 17 -31 -4
-88 -13 -127 -19 l-70 -12 7 -51 c4 -28 10 -72 14 -98 5 -39 10 -48 33 -56 27
-9 27 -9 -19 -29 -38 -17 -60 -20 -115 -15 -60 4 -67 3 -61 -11 4 -10 2 -17
-3 -17 -6 0 -10 6 -10 14 0 8 -3 21 -6 29 -3 9 4 25 15 36 17 17 34 21 87 21
l65 0 -6 48 c-14 100 -23 122 -53 123 -21 1 -23 2 -7 6 26 7 34 20 27 45 -4
16 -11 19 -36 14 -17 -3 -68 -10 -113 -17 -82 -11 -83 -12 -83 -39 0 -22 6
-30 23 -33 20 -4 21 -4 1 -6 -19 -1 -20 -5 -13 -49 15 -85 22 -147 16 -142 -3
3 -11 33 -17 65 -20 109 -22 115 -39 116 -10 0 -11 2 -3 6 6 2 12 18 12 34 0
26 -4 29 -32 30 -32 2 -32 2 -5 6 21 3 27 9 23 20 -3 8 -6 21 -6 29 0 19 -48
14 -328 -32 -52 -9 -95 -14 -96 -12 -1 1 -12 37 -25 78 -12 41 -30 102 -41
135 -10 33 -33 107 -50 165 -93 309 -188 523 -245 554 -11 6 -25 18 -32 26
-11 13 -14 13 -23 0 -5 -8 -10 -28 -10 -44 0 -41 -30 -208 -40 -228 -5 -9 -13
-35 -16 -58 -7 -42 -20 -52 -31 -23 -7 17 15 141 54 310 24 106 29 145 13 106
-5 -13 -16 -23 -23 -23 -9 0 -19 -18 -25 -42 -6 -24 -20 -61 -31 -83 l-20 -40
-1 103 c0 95 -1 101 -17 91 -25 -15 -61 -102 -72 -171 -6 -31 -11 -116 -12
-187 -1 -72 -6 -131 -11 -131 -5 0 -13 12 -19 28 -7 15 -15 36 -19 47 -5 11
-11 36 -14 55 -10 60 -43 214 -51 231 -3 10 -2 20 4 24 6 3 11 11 11 16 0 6
-4 7 -10 4 -5 -3 -20 10 -31 30 -23 38 -43 35 -44 -7 0 -41 -22 -28 -52 33
l-30 62 5 -111 c4 -108 -5 -249 -15 -238 -3 3 -14 56 -24 117 -10 62 -23 126
-28 143 -19 60 -41 192 -44 254 -2 52 1 65 16 73 9 6 17 22 17 37 0 43 20 102
34 102 7 0 73 -36 147 -80 73 -44 134 -80 136 -80 3 0 85 -60 115 -85 10 -8
35 -26 56 -39 22 -13 54 -44 73 -68 19 -24 37 -47 42 -53 4 -5 26 -38 48 -72
22 -35 43 -63 48 -63 9 0 31 45 31 64 0 7 9 21 20 31 11 10 20 28 20 41 0 13
4 26 10 29 5 3 9 21 8 40 -1 19 4 40 11 48 6 8 18 39 27 68 19 66 37 109 45
109 4 0 12 21 19 48 14 57 42 122 53 122 4 0 7 8 7 18 0 9 18 48 40 86 22 37
40 73 40 78 0 5 8 22 19 36 10 15 21 40 25 55 4 16 18 46 31 68 14 21 25 42
25 46 0 5 9 19 20 33 11 14 20 32 20 41 0 9 7 20 16 23 8 3 12 10 9 16 -3 5
-3 10 2 10 4 0 16 12 26 26 16 21 17 27 5 41 -12 15 -10 16 16 9 26 -6 28 -5
24 18 -3 14 -1 23 3 20 8 -5 13 10 10 29 0 4 6 7 14 7 8 0 17 14 21 35 3 20
16 40 30 50 16 11 24 25 24 45 0 24 4 30 21 30 15 0 19 4 15 16 -4 10 5 29 24
51 17 19 34 48 37 65 3 16 18 39 34 50 15 11 35 40 44 64 9 24 20 44 25 44 13
0 101 163 96 177 -3 7 -1 13 4 13 6 0 10 -6 10 -12 0 -9 3 -8 9 2 4 8 3 104
-2 213 l-10 197 -809 0 c-645 0 -808 -3 -801 -12 4 -7 8 -20 9 -28 1 -8 2 -23
3 -34 0 -10 6 -16 14 -13 9 3 12 -7 11 -38 -1 -24 -5 -48 -8 -54 -4 -6 -29
-11 -57 -11 -28 0 -49 -5 -49 -11 0 -5 -4 -8 -9 -4 -6 3 -19 -5 -30 -17 l-21
-22 0 25 c0 13 -7 37 -15 53 -18 34 -19 39 -4 30 7 -4 10 -1 7 7 -3 8 -15 14
-29 14 -20 0 -25 7 -32 43 -6 32 -12 42 -23 38 -8 -3 -14 -1 -14 4 0 6 -9 10
-20 10 -11 0 -29 6 -40 12 -16 10 -24 10 -38 1 -9 -7 -34 -21 -54 -32 l-38
-21 0 30 0 30 -592 -1 -593 -1 -59 -48z m1721 -800 c3 -17 10 -33 16 -37 6 -3
7 -1 3 5 -4 7 -3 12 2 12 12 0 22 -58 11 -62 -4 -2 -11 -25 -15 -53 -6 -46 -6
-49 9 -36 19 15 24 -1 7 -22 -6 -7 -19 -24 -31 -39 -19 -26 -48 -38 -50 -20
-8 50 -7 77 1 87 6 7 13 53 17 104 6 92 18 117 30 61z m-921 -2065 c7 -39 10
-80 7 -92 -5 -21 -155 -138 -192 -150 -9 -3 -25 -9 -36 -13 -11 -5 -36 -15
-55 -23 -59 -25 -101 -38 -198 -62 l-94 -23 5 32 c11 66 53 169 82 203 27 32
34 34 52 24 54 -28 104 -6 153 67 8 12 30 27 50 33 35 12 99 38 155 65 50 23
58 16 71 -61z m-16 -565 c-25 -7 -25 -7 5 -11 23 -3 30 -9 28 -24 -1 -11 4
-23 10 -27 7 -5 3 -8 -11 -8 -14 0 -21 -4 -16 -11 4 -7 0 -9 -13 -5 -17 5 -20
2 -19 -20 1 -25 26 -49 26 -25 0 6 7 11 15 11 8 0 15 -7 15 -15 0 -8 -7 -15
-15 -15 -8 0 -15 -8 -16 -17 0 -11 -3 -13 -6 -5 -9 23 -20 12 -15 -18 3 -22
10 -30 26 -31 20 -2 20 -2 -1 -6 -26 -5 -25 0 -23 -110 1 -48 -3 -84 -9 -88
-7 -4 -11 4 -11 19 0 42 -10 57 -30 46 -9 -5 -20 -7 -23 -3 -11 10 3 23 24 23
21 0 26 16 7 23 -8 3 -6 6 5 6 30 2 18 21 -13 21 -28 0 -30 3 -30 34 0 30 3
35 28 38 16 2 27 9 27 18 0 8 -7 13 -15 11 -8 -2 -23 -4 -33 -5 -15 0 -17 -12
-16 -111 0 -60 0 -116 0 -122 -1 -18 -21 -16 -21 2 0 8 -5 15 -11 15 -6 0 -9
6 -6 14 4 10 0 12 -14 9 -16 -4 -19 0 -19 25 0 24 5 31 25 36 14 4 23 11 20
17 -4 5 -15 7 -26 4 -11 -4 -19 -2 -19 4 0 6 -3 11 -8 11 -4 0 -6 -34 -4 -76
3 -47 0 -80 -7 -87 -8 -8 -11 -7 -11 6 0 11 -5 14 -17 10 -15 -5 -16 -3 -5 8
6 7 12 28 12 46 0 25 -4 33 -17 33 -17 1 -17 1 0 11 24 14 22 32 -3 24 -17 -5
-20 -2 -20 23 0 21 6 31 20 35 31 8 26 35 -6 29 -23 -4 -25 -2 -22 24 2 18 11
33 26 39 29 13 28 25 -3 25 -14 0 -25 5 -25 10 0 12 -52 13 -65 2 -6 -5 -21
-6 -35 -1 -23 6 -23 7 -3 8 12 1 29 9 39 18 13 13 19 14 22 5 2 -6 12 -12 23
-12 27 0 28 70 2 71 -17 1 88 26 134 32 12 2 24 5 27 7 2 3 35 6 73 6 43 1 59
-1 43 -6z m2451 -98 c47 -54 69 -81 69 -87 0 -3 -17 -4 -38 -3 -22 0 -44 -2
-51 -6 -14 -9 -51 20 -51 39 0 14 -22 25 -50 25 -19 0 -32 -40 -19 -61 13 -22
0 -29 -52 -29 -42 0 -49 -3 -49 -19 0 -11 7 -26 15 -35 22 -22 18 -45 -11 -56
-35 -14 -44 -13 -44 5 0 8 -4 15 -9 15 -6 0 -22 11 -37 25 -15 14 -31 25 -36
25 -16 0 -35 -24 -47 -63 -7 -20 -14 -37 -15 -37 -2 0 -13 27 -25 60 -12 33
-31 65 -42 70 -20 11 -22 7 -10 -25 10 -26 -8 -47 -26 -29 -7 7 -13 20 -13 28
0 18 -16 21 -26 5 -3 -6 -6 -44 -6 -85 -1 -59 3 -77 16 -87 24 -18 23 -58 -3
-147 -6 -19 -11 -47 -11 -61 0 -30 -16 -40 -70 -43 -61 -4 -174 -27 -180 -37
-8 -11 -102 -37 -118 -31 -15 5 -16 76 -1 105 17 32 91 129 114 149 11 10 44
25 73 35 63 20 50 31 -39 32 -30 1 -62 7 -71 14 -18 13 -54 148 -45 169 2 7
29 21 58 32 52 18 114 30 419 81 209 34 312 54 318 60 3 3 22 5 43 5 30 0 43
-7 70 -38z"/>
<path d="M2 3329 c3 -290 5 -353 17 -357 8 -3 11 0 7 6 -3 6 1 8 12 5 12 -3
22 4 31 21 8 14 18 23 23 20 4 -3 25 0 46 7 20 7 32 14 25 16 -7 2 -22 -1 -33
-7 -12 -6 -24 -9 -27 -6 -3 2 12 12 33 21 27 11 39 12 45 4 5 -8 9 -7 15 3 13
22 51 40 59 28 3 -5 11 -10 16 -10 6 0 7 5 4 10 -3 6 -3 15 1 21 4 8 9 7 14
-2 6 -9 12 -9 25 4 9 10 26 17 38 17 19 1 17 3 -8 14 l-30 13 35 0 c20 0 40
-7 47 -16 6 -9 15 -13 19 -8 4 4 1 7 -7 7 -11 0 -11 2 1 10 10 6 11 10 3 10
-7 0 -13 6 -13 14 0 17 70 18 83 1 5 -6 7 -4 6 5 -3 31 1 49 14 53 6 2 5 3 -4
2 -34 -5 -43 10 -29 47 8 18 18 36 24 40 12 8 -11 38 -30 38 -19 0 -18 35 1
54 8 8 15 19 15 25 0 6 4 11 9 11 5 0 7 10 3 22 -5 20 -3 21 36 14 41 -6 41
-6 51 31 6 20 8 40 4 46 -3 5 0 13 7 17 7 4 9 13 5 19 -5 9 -11 7 -20 -5 -12
-17 -15 -16 -45 14 -32 32 -50 40 -50 22 0 -18 -18 -10 -23 10 -5 18 -14 20
-111 19 -109 0 -284 9 -324 17 l-22 4 2 -351z"/>
<path d="M710 839 c-36 -4 -101 -19 -145 -34 -44 -15 -98 -32 -120 -38 -49
-13 -82 -42 -59 -51 9 -3 25 -6 36 -6 16 0 19 -5 14 -22 -4 -17 2 -29 21 -45
14 -13 30 -23 35 -23 4 0 8 -9 8 -20 0 -11 -5 -20 -11 -20 -8 0 -7 -5 1 -15 7
-9 20 -13 29 -11 9 2 32 7 52 10 29 5 35 11 35 28 -1 14 6 24 18 26 14 3 17 0
13 -12 -11 -28 74 -9 98 22 39 49 67 71 107 84 l39 13 -25 28 c-14 15 -29 40
-32 55 -7 28 -22 43 -39 40 -5 -1 -39 -5 -75 -9z"/>
</g>
</svg>
